<mxfile host="app.diagrams.net" modified="2021-01-07T01:33:03.609Z" agent="5.0 (Macintosh; Intel Mac OS X 10_15_1) AppleWebKit/537.36 (KHTML, like Gecko) Chrome/87.0.4280.88 Safari/537.36" etag="Inx7iOdU-ELeJfx6X7Ww" version="14.1.7" type="github">
  <diagram id="tZ8Z-C9HhGOlVit2oTPL" name="第 1 页">
    <mxGraphModel dx="1426" dy="794" grid="1" gridSize="10" guides="1" tooltips="1" connect="1" arrows="1" fold="1" page="1" pageScale="1" pageWidth="827" pageHeight="1169" background="#FFF2CC" math="0" shadow="0">
      <root>
        <mxCell id="0" />
        <mxCell id="1" parent="0" />
        <mxCell id="4Vix9wKRohyGoepseFVD-11" value="" style="shape=mxgraph.mockup.containers.marginRect;rectMarginTop=10;strokeWidth=1;dashed=0;rounded=1;arcSize=5;recursiveResize=0;sketch=0;fillColor=#f5f5f5;strokeColor=#666666;fontColor=#333333;" vertex="1" parent="1">
          <mxGeometry x="25" y="380" width="175" height="530" as="geometry" />
        </mxCell>
        <mxCell id="4Vix9wKRohyGoepseFVD-12" value="Mount" style="shape=rect;strokeColor=none;fillColor=#008cff;strokeWidth=1;dashed=0;rounded=1;arcSize=20;fontColor=#ffffff;fontSize=17;spacing=2;spacingTop=-2;align=left;autosize=1;spacingLeft=4;resizeWidth=0;resizeHeight=0;perimeter=none;" vertex="1" parent="4Vix9wKRohyGoepseFVD-11">
          <mxGeometry x="5" width="70" height="30" as="geometry" />
        </mxCell>
        <mxCell id="4Vix9wKRohyGoepseFVD-27" value="componentWillMount" style="rounded=1;whiteSpace=wrap;html=1;sketch=1;strokeColor=#6c8ebf;fillColor=#dae8fc;glass=0;" vertex="1" parent="4Vix9wKRohyGoepseFVD-11">
          <mxGeometry x="25" y="50" width="120" height="60" as="geometry" />
        </mxCell>
        <mxCell id="4Vix9wKRohyGoepseFVD-28" value="render" style="rounded=1;whiteSpace=wrap;html=1;sketch=1;strokeColor=#82b366;fillColor=#d5e8d4;glass=0;" vertex="1" parent="4Vix9wKRohyGoepseFVD-11">
          <mxGeometry x="25" y="145" width="120" height="60" as="geometry" />
        </mxCell>
        <mxCell id="4Vix9wKRohyGoepseFVD-29" value="componentDidMount" style="rounded=1;whiteSpace=wrap;html=1;sketch=1;strokeColor=#6c8ebf;fillColor=#dae8fc;glass=0;" vertex="1" parent="4Vix9wKRohyGoepseFVD-11">
          <mxGeometry x="25" y="240" width="120" height="60" as="geometry" />
        </mxCell>
        <mxCell id="4Vix9wKRohyGoepseFVD-13" value="componentWillMount" style="rounded=1;whiteSpace=wrap;html=1;sketch=1;strokeColor=#6c8ebf;fillColor=#dae8fc;glass=0;" vertex="1" parent="1">
          <mxGeometry x="50" y="20" width="120" height="60" as="geometry" />
        </mxCell>
        <mxCell id="4Vix9wKRohyGoepseFVD-14" value="componentDidMount" style="rounded=1;whiteSpace=wrap;html=1;sketch=1;strokeColor=#6c8ebf;fillColor=#dae8fc;glass=0;" vertex="1" parent="1">
          <mxGeometry x="50" y="100" width="120" height="60" as="geometry" />
        </mxCell>
        <mxCell id="4Vix9wKRohyGoepseFVD-15" value="render" style="rounded=1;whiteSpace=wrap;html=1;sketch=1;strokeColor=#6c8ebf;fillColor=#dae8fc;glass=0;" vertex="1" parent="1">
          <mxGeometry x="50" y="180" width="120" height="60" as="geometry" />
        </mxCell>
        <mxCell id="4Vix9wKRohyGoepseFVD-16" value="shouldComponentUpdate" style="rounded=1;whiteSpace=wrap;html=1;sketch=1;strokeColor=#6c8ebf;fillColor=#dae8fc;glass=0;" vertex="1" parent="1">
          <mxGeometry x="200" y="20" width="150" height="60" as="geometry" />
        </mxCell>
        <mxCell id="4Vix9wKRohyGoepseFVD-17" value="componentWillUpdate" style="rounded=1;whiteSpace=wrap;html=1;sketch=1;strokeColor=#6c8ebf;fillColor=#dae8fc;glass=0;" vertex="1" parent="1">
          <mxGeometry x="200" y="100" width="150" height="60" as="geometry" />
        </mxCell>
        <mxCell id="4Vix9wKRohyGoepseFVD-18" value="componentDidUpdate" style="rounded=1;whiteSpace=wrap;html=1;sketch=1;strokeColor=#6c8ebf;fillColor=#dae8fc;glass=0;" vertex="1" parent="1">
          <mxGeometry x="200" y="180" width="150" height="60" as="geometry" />
        </mxCell>
        <mxCell id="4Vix9wKRohyGoepseFVD-19" value="componentWillReceiveProps" style="rounded=1;whiteSpace=wrap;html=1;sketch=1;strokeColor=#6c8ebf;fillColor=#dae8fc;glass=0;" vertex="1" parent="1">
          <mxGeometry x="200" y="260" width="150" height="60" as="geometry" />
        </mxCell>
        <mxCell id="4Vix9wKRohyGoepseFVD-20" value="componentWillUnmount" style="rounded=1;whiteSpace=wrap;html=1;sketch=1;strokeColor=#6c8ebf;fillColor=#dae8fc;glass=0;" vertex="1" parent="1">
          <mxGeometry x="370" y="20" width="150" height="60" as="geometry" />
        </mxCell>
        <mxCell id="4Vix9wKRohyGoepseFVD-21" value="" style="shape=mxgraph.mockup.containers.marginRect;rectMarginTop=10;strokeWidth=1;dashed=0;rounded=1;arcSize=5;recursiveResize=0;sketch=0;fillColor=#f5f5f5;strokeColor=#666666;fontColor=#333333;" vertex="1" parent="1">
          <mxGeometry x="244" y="380" width="170" height="530" as="geometry" />
        </mxCell>
        <mxCell id="4Vix9wKRohyGoepseFVD-22" value="Update Props" style="shape=rect;strokeColor=none;fillColor=#008cff;strokeWidth=1;dashed=0;rounded=1;arcSize=20;fontColor=#ffffff;fontSize=17;spacing=2;spacingTop=-2;align=left;autosize=1;spacingLeft=4;resizeWidth=0;resizeHeight=0;perimeter=none;" vertex="1" parent="4Vix9wKRohyGoepseFVD-21">
          <mxGeometry x="5" width="130" height="30" as="geometry" />
        </mxCell>
        <mxCell id="4Vix9wKRohyGoepseFVD-30" value="componentWillReceiveProps" style="rounded=1;whiteSpace=wrap;html=1;sketch=1;strokeColor=#6c8ebf;fillColor=#dae8fc;glass=0;" vertex="1" parent="4Vix9wKRohyGoepseFVD-21">
          <mxGeometry x="10" y="50" width="150" height="60" as="geometry" />
        </mxCell>
        <mxCell id="4Vix9wKRohyGoepseFVD-31" value="shouldComponentUpdate" style="rounded=1;whiteSpace=wrap;html=1;sketch=1;strokeColor=#b85450;fillColor=#f8cecc;glass=0;" vertex="1" parent="4Vix9wKRohyGoepseFVD-21">
          <mxGeometry x="10" y="150" width="150" height="60" as="geometry" />
        </mxCell>
        <mxCell id="4Vix9wKRohyGoepseFVD-32" value="componentWillUpdate" style="rounded=1;whiteSpace=wrap;html=1;sketch=1;strokeColor=#6c8ebf;fillColor=#dae8fc;glass=0;" vertex="1" parent="4Vix9wKRohyGoepseFVD-21">
          <mxGeometry x="10" y="240" width="150" height="60" as="geometry" />
        </mxCell>
        <mxCell id="4Vix9wKRohyGoepseFVD-33" value="render" style="rounded=1;whiteSpace=wrap;html=1;sketch=1;strokeColor=#82b366;fillColor=#d5e8d4;glass=0;" vertex="1" parent="4Vix9wKRohyGoepseFVD-21">
          <mxGeometry x="25" y="330" width="120" height="60" as="geometry" />
        </mxCell>
        <mxCell id="4Vix9wKRohyGoepseFVD-34" value="componentDidUpdate" style="rounded=1;whiteSpace=wrap;html=1;sketch=1;strokeColor=#6c8ebf;fillColor=#dae8fc;glass=0;" vertex="1" parent="4Vix9wKRohyGoepseFVD-21">
          <mxGeometry x="10" y="420" width="150" height="60" as="geometry" />
        </mxCell>
        <mxCell id="4Vix9wKRohyGoepseFVD-23" value="" style="shape=mxgraph.mockup.containers.marginRect;rectMarginTop=10;strokeColor=#666666;strokeWidth=1;dashed=0;rounded=1;arcSize=5;recursiveResize=0;sketch=0;fillColor=#f5f5f5;fontColor=#333333;" vertex="1" parent="1">
          <mxGeometry x="640" y="380" width="170" height="530" as="geometry" />
        </mxCell>
        <mxCell id="4Vix9wKRohyGoepseFVD-24" value="Unmount" style="shape=rect;strokeColor=none;fillColor=#008cff;strokeWidth=1;dashed=0;rounded=1;arcSize=20;fontColor=#ffffff;fontSize=17;spacing=2;spacingTop=-2;align=left;autosize=1;spacingLeft=4;resizeWidth=0;resizeHeight=0;perimeter=none;" vertex="1" parent="4Vix9wKRohyGoepseFVD-23">
          <mxGeometry x="5" width="90" height="30" as="geometry" />
        </mxCell>
        <mxCell id="4Vix9wKRohyGoepseFVD-43" value="componentWillUnmount" style="rounded=1;whiteSpace=wrap;html=1;sketch=1;strokeColor=#6c8ebf;fillColor=#dae8fc;glass=0;" vertex="1" parent="4Vix9wKRohyGoepseFVD-23">
          <mxGeometry x="10" y="60" width="150" height="60" as="geometry" />
        </mxCell>
        <mxCell id="4Vix9wKRohyGoepseFVD-25" value="" style="shape=mxgraph.mockup.containers.marginRect;rectMarginTop=10;strokeColor=#666666;strokeWidth=1;dashed=0;rounded=1;arcSize=5;recursiveResize=0;sketch=0;fillColor=#f5f5f5;fontColor=#333333;" vertex="1" parent="1">
          <mxGeometry x="430" y="380" width="170" height="530" as="geometry" />
        </mxCell>
        <mxCell id="4Vix9wKRohyGoepseFVD-26" value="Update State" style="shape=rect;strokeColor=none;fillColor=#008cff;strokeWidth=1;dashed=0;rounded=1;arcSize=20;fontColor=#ffffff;fontSize=17;spacing=2;spacingTop=-2;align=left;autosize=1;spacingLeft=4;resizeWidth=0;resizeHeight=0;perimeter=none;" vertex="1" parent="4Vix9wKRohyGoepseFVD-25">
          <mxGeometry x="5" width="120" height="30" as="geometry" />
        </mxCell>
        <mxCell id="4Vix9wKRohyGoepseFVD-35" value="shouldComponentUpdate" style="rounded=1;whiteSpace=wrap;html=1;sketch=1;strokeColor=#b85450;fillColor=#f8cecc;glass=0;" vertex="1" parent="4Vix9wKRohyGoepseFVD-25">
          <mxGeometry x="10" y="150" width="150" height="60" as="geometry" />
        </mxCell>
        <mxCell id="4Vix9wKRohyGoepseFVD-36" value="componentWillUpdate" style="rounded=1;whiteSpace=wrap;html=1;sketch=1;strokeColor=#6c8ebf;fillColor=#dae8fc;glass=0;" vertex="1" parent="4Vix9wKRohyGoepseFVD-25">
          <mxGeometry x="10" y="240" width="150" height="60" as="geometry" />
        </mxCell>
        <mxCell id="4Vix9wKRohyGoepseFVD-37" value="render" style="rounded=1;whiteSpace=wrap;html=1;sketch=1;strokeColor=#82b366;fillColor=#d5e8d4;glass=0;" vertex="1" parent="4Vix9wKRohyGoepseFVD-25">
          <mxGeometry x="25" y="330" width="120" height="60" as="geometry" />
        </mxCell>
        <mxCell id="4Vix9wKRohyGoepseFVD-38" value="componentDidUpdate" style="rounded=1;whiteSpace=wrap;html=1;sketch=1;strokeColor=#6c8ebf;fillColor=#dae8fc;glass=0;" vertex="1" parent="4Vix9wKRohyGoepseFVD-25">
          <mxGeometry x="10" y="420" width="150" height="60" as="geometry" />
        </mxCell>
      </root>
    </mxGraphModel>
  </diagram>
</mxfile>
